<svg xmlns="http://www.w3.org/2000/svg" width="1200" height="720" viewBox="0 0 1200 720">
  <defs>
    <linearGradient id="bg" x1="0" y1="0" x2="1" y2="1">
      <stop offset="0" stop-color="#0b1220"/>
      <stop offset="1" stop-color="#0f2a3a"/>
    </linearGradient>
    <linearGradient id="acc" x1="0" y1="0" x2="1" y2="0">
      <stop offset="0" stop-color="#38bdf8"/>
      <stop offset="1" stop-color="#60a5fa"/>
    </linearGradient>
  </defs>
  <rect x="0" y="0" width="1200" height="720" rx="28" fill="url(#bg)"/>
  <rect x="36" y="36" width="1128" height="80" rx="18" fill="rgba(255,255,255,0.06)"/>
  <rect x="70" y="62" width="220" height="28" rx="14" fill="url(#acc)" opacity="0.85"/>
  <rect x="36" y="140" width="300" height="544" rx="22" fill="rgba(255,255,255,0.05)"/>
  <rect x="360" y="140" width="804" height="260" rx="22" fill="rgba(255,255,255,0.05)"/>
  <rect x="360" y="420" width="390" height="264" rx="22" fill="rgba(255,255,255,0.05)"/>
  <rect x="774" y="420" width="390" height="264" rx="22" fill="rgba(255,255,255,0.05)"/>
  <circle cx="1060" cy="76" r="18" fill="rgba(255,255,255,0.25)"/>
  <circle cx="1110" cy="76" r="18" fill="rgba(255,255,255,0.16)"/>
  <g opacity="0.9">
    <rect x="388" y="168" width="240" height="18" rx="9" fill="rgba(255,255,255,0.28)"/>
    <rect x="388" y="200" width="520" height="14" rx="7" fill="rgba(255,255,255,0.16)"/>
    <rect x="388" y="226" width="460" height="14" rx="7" fill="rgba(255,255,255,0.12)"/>
    <rect x="388" y="258" width="220" height="44" rx="14" fill="url(#acc)" opacity="0.70"/>
  </g>
  <text x="70" y="660" font-family="Arial, Helvetica, sans-serif" font-size="26" fill="rgba(255,255,255,0.55)">Placeholder preview (replace with your app screenshots)</text>
</svg>
